<?xml version="1.0" encoding="utf-8"?>
<!-- Generator: Adobe Illustrator 24.0.1, SVG Export Plug-In . SVG Version: 6.00 Build 0)  -->
<svg version="1.1" id="Waters_logo" xmlns="http://www.w3.org/2000/svg" xmlns:xlink="http://www.w3.org/1999/xlink" x="0px"
	 y="0px" viewBox="0 0 171.1 43.1" style="enable-background:new 0 0 171.1 43.1;" xml:space="preserve">
<g>
	<g>
		<g id="Waters">
			<path d="M0,1.5h4.2l11,32.4L26.9,0l12.2,33.6L49.7,1.5h4.1L39.1,43.1L26.9,9.2L15.2,43.1L0,1.5z"/>
			<path d="M72.1,37.5C70.4,41.1,67,43,62.7,43c-7.6,0-12.8-5.3-12.8-13.2c0-7.9,5.2-13.3,12.4-13.3c4.5,0,7.9,1.8,9.7,5.4v-4.4h3.7
				V42H72L72.1,37.5L72.1,37.5z M63.1,39.9c5.4,0,9.1-3.7,9.1-10.5c0-6.1-3.6-9.7-9-9.7s-9.1,3.8-9.1,10.3
				C54.1,36.4,57.4,39.9,63.1,39.9z"/>
			<path d="M79.8,20.4v-2.9h4.9V7.4h3.6v10.1h5.4v2.9h-5.4V42h-3.6V20.4H79.8z"/>
			<path d="M99.1,29.8c0.1,6.4,3.8,10.2,9.1,10.2c4,0,6.8-2,8.9-5.9l3.4,1.7c-2.7,5-6.5,7.2-12.3,7.2c-7.8,0-13.1-5.4-13.1-13.1
				c0-8.2,5.4-13.4,13-13.4c7.2,0,12.2,4.8,12.2,12.4c0,0.3,0,0.6,0,0.9L99.1,29.8L99.1,29.8z M107.6,19.9c-4.3,0-7.8,2.8-8.3,7.1
				h16.6C115.6,22.4,112.6,19.9,107.6,19.9z"/>
			<path d="M136.7,16.6c1,0,2.1,0.2,3.1,0.5l-1.2,3.2c-0.9-0.3-1.8-0.4-2.5-0.4c-4.1,0-8.1,4-8.1,10V42h-3.7V17.5h3.7v4.9
				C130.7,18.3,133,16.6,136.7,16.6z"/>
			<path d="M143.4,35.8c1.2,2.8,3.4,4.1,6.6,4.1s5.1-1.6,5.1-4c0-3.4-3.3-3.9-7.5-5.5c-4.3-1.6-6.4-3.6-6.4-6.7
				c0-4.1,3.5-7.1,8.6-7.1c4.3,0,7.5,1.8,8.9,5l-3.4,1.8c-0.9-2.3-2.9-3.6-5.7-3.6c-2.6,0-4.4,1.6-4.4,3.6c0,2.4,2.2,3.4,6.4,4.7
				c4.8,1.5,7.5,3.1,7.5,7.6c0,4.4-3.6,7.4-9.7,7.4c-4.6,0-8-2.1-9.4-5.4L143.4,35.8z"/>
		</g>
	</g>
	<g>
		<path d="M160.3,16.5h4.5v0.8H163V22h-1v-4.7h-1.8L160.3,16.5L160.3,16.5z"/>
		<path d="M165.4,16.5h1.4l1.5,4.4l0,0l1.5-4.4h1.4v5.6h-0.9v-4.3l0,0l-1.5,4.3H168l-1.5-4.3l0,0v4.3h-0.9L165.4,16.5L165.4,16.5z"
			/>
	</g>
</g>
</svg>
